<?xml version="1.0" standalone="no"?>
<!DOCTYPE svg PUBLIC "-//W3C//DTD SVG 1.1//EN" "http://www.w3.org/Graphics/SVG/1.1/DTD/svg11.dtd" >
<svg xmlns="http://www.w3.org/2000/svg" xmlns:xlink="http://www.w3.org/1999/xlink" version="1.1">
<metadata></metadata>
<defs>
<font id="stardew_valleyregular" horiz-adv-x="958" >
<font-face units-per-em="2048" ascent="1638" descent="-410" />
<missing-glyph horiz-adv-x="718" />
<glyph horiz-adv-x="0" />
<glyph unicode="&#xd;" horiz-adv-x="681" />
<glyph unicode=" "  horiz-adv-x="718" />
<glyph unicode="&#x09;" horiz-adv-x="718" />
<glyph unicode="&#xa0;" horiz-adv-x="718" />
<glyph unicode="!" horiz-adv-x="600" d="M61 29v237h240v-59q0 -39 -10 -49.5t-51 -10.5q-39 0 -49.5 -10t-10.5 -49t-10 -49t-49 -10h-60zM180 385v717h60q41 0 51 10t10 49t9 49.5t50 10.5t50.5 -10.5t9.5 -49.5t9 -49t50 -10h60v-359h-119v-237h-60q-39 0 -49 -10.5t-10 -51.5q0 -39 -10 -49t-51 -10h-60z" />
<glyph unicode="&#x22;" horiz-adv-x="839" d="M61 1022v240h240v-359h-61q-39 0 -49.5 9.5t-10.5 50.5t-10 50t-49 9h-60zM539 1022v240h239v-359h-61q-41 0 -50.5 9.5t-9.5 50.5t-9 50t-50 9h-59z" />
<glyph unicode="#" horiz-adv-x="839" d="M61 506q0 39 10.5 49t49.5 10h59v357h-59q-39 0 -49.5 10t-10.5 51t10.5 50t49.5 9t49 9.5t10 50.5t10.5 50t49.5 9q41 0 51 -10t10 -49v-60h238v60q0 41 9 50t50 9t50 -9t9 -50t9.5 -50.5t50.5 -9.5t51 -10t10 -49q0 -41 -10 -51t-51 -10h-60v-357h60q41 0 51 -10 t10 -49t-10 -50.5t-51 -11.5t-50.5 -9t-9.5 -50t-9 -50t-50 -9t-50 9t-9 50v59h-238v-59q0 -39 -10 -49t-51 -10q-39 0 -49.5 9t-10.5 50t-10 50t-49 9t-49.5 10.5t-10.5 51.5zM301 565h238v357h-238v-357z" />
<glyph unicode="$" horiz-adv-x="1056" d="M61 385v598h41q41 0 49.5 -15.5t10.5 -107.5q2 -37 2 -61q0 -190 12 -348q2 -45 12.5 -55.5t51.5 -10.5t51 -10t10 -49v-60h477v60q0 39 10.5 49t49.5 10h59v598h98v-598h-32.5t-29.5 -2t-22.5 -6t-12.5 -17.5t-1 -33.5q0 -39 -10 -49.5t-49 -10.5t-49.5 -10t-10.5 -49 v-60h-477v60q0 39 -10 49t-51 10q-39 0 -49.5 10.5t-10.5 49.5t-10 49t-49 10h-60zM180 1052.5q0 28.5 11.5 39t40 10.5t39 -10.5t10.5 -39t-10.5 -40t-39 -11.5t-40 11.5t-11.5 40zM301 1122v99h477v-99h-477zM438 553q0 27 12.5 39t45.5 16q31 4 44 16.5t15 45.5 q6 53 45 53q25 0 32 -18.5t7 -90.5v-108h-100q-70 0 -85.5 7t-15.5 40zM438 862v101h101q63 0 81.5 -7.5t18.5 -31.5q0 -39 -55 -45q-33 -2 -45.5 -15.5t-16.5 -44.5q-6 -55 -45 -55q-25 0 -32 17.5t-7 80.5zM797 1052.5q0 28.5 10 39t38.5 10.5t40 -10.5t11.5 -39 t-11.5 -40t-40 -11.5t-38.5 11.5t-10 40z" />
<glyph unicode="%" horiz-adv-x="937" d="M61 963v237h60q39 0 49 10.5t10 51.5t10.5 50t49.5 9q41 0 51 -10.5t10 -48.5q0 -41 10.5 -51.5t48.5 -10.5h60v-237h-60q-41 0 -50 -10.5t-9 -49.5t-10 -49t-51 -10q-39 0 -49.5 10t-10.5 49t-10 49.5t-49 10.5h-60zM180 307q0 41 10.5 50.5t49.5 9.5h61v237h119v-237 h-60q-41 0 -50 -9.5t-9 -50.5t-11 -51t-50 -10t-49.5 10t-10.5 51zM180 963h121v237h-121v-237zM420 604v240h119v-240h-119zM539 246v239h59q41 0 50 9.5t9 50.5t9.5 50t50.5 9t51 -10t10 -49q0 -37 9.5 -48.5t39.5 -11.5q35 0 42.5 -17t7.5 -101q0 -86 -7.5 -103.5 t-42.5 -17.5q-31 0 -40 -11.5t-9 -48.5q0 -39 -10 -49t-51 -10t-50.5 10t-9.5 49t-9 49.5t-50 10.5h-59zM539 844v237h59q41 0 50 10.5t9 49.5t9.5 49t50.5 10t51 -10t10 -49t-10 -49.5t-51 -10.5h-60v-237h-118zM657 246h121v239h-121v-239z" />
<glyph unicode="&#x26;" horiz-adv-x="1097" d="M61 375q0 76 13 178q8 63 19 77.5t50 14.5t48.5 10.5t9.5 49.5q0 41 10 50t49 9t49 9t10 50t-10 50.5t-49 9.5h-59v358h59q39 0 49 10t10 49v60h240v-60q0 -39 9.5 -49t49.5 -10h60v-240h-60q-41 0 -50 -9t-9 -50t-9 -50t-50 -9t-51.5 -10.5t-10.5 -49.5t10.5 -49 t51.5 -10t50 -9.5t9 -50t9.5 -50t49.5 -9.5q39 0 49.5 -10t10.5 -51q0 -39 9 -49.5t50 -10.5t50.5 -10t9.5 -49t9 -49t50 -10t50 10t9 49t10.5 49t51.5 10q39 0 49 -10t10 -49t-10 -49t-49 -10q-41 0 -51.5 -10.5t-10.5 -49.5t10.5 -49t51.5 -10q39 0 49 -10.5t10 -49.5 t-10 -49t-49 -10q-41 0 -51.5 10t-10.5 49t-9 49.5t-50 10.5t-50 -10.5t-9 -49.5v-59h-596v59q0 41 -11.5 50.5t-58.5 9.5q-53 0 -61.5 11t-8.5 77zM201 287h596v59q0 39 -9.5 49.5t-50.5 10.5t-50 10t-9 49t-9.5 49t-50 10t-50 10.5t-9.5 49.5q0 41 -10 51t-49 10 q-41 0 -51.5 10.5t-10.5 49.5q0 41 -10 50t-49 9t-49.5 -9.5t-10.5 -50t-10 -50t-49 -9.5h-59v-358zM319 883h60q39 0 49 9t10 50q0 39 10.5 49t51.5 10h59v240h-240v-358z" />
<glyph unicode="'" horiz-adv-x="362" d="M61 823v477h240v-477h-240z" />
<glyph unicode="(" horiz-adv-x="600" d="M61 147v955h60q39 0 49 10t10 49t10.5 49.5t49.5 10.5q41 0 51 10t10 49t9 49t50 10t50.5 10.5t9.5 49.5q0 41 10 51t49 10h60v-239h-60q-41 0 -50 -10.5t-9 -49.5t-9.5 -49t-50.5 -10h-59v-955h59q41 0 50.5 -10t9.5 -49t9 -49t50 -10h60v-240h-60q-41 0 -50 9t-9 50 t-9.5 50.5t-50.5 9.5t-50 9t-9 50t-11 51.5t-50 10.5t-49.5 10t-10.5 49t-10 49t-49 10h-60z" />
<glyph unicode=")" horiz-adv-x="600" d="M61 29h60q39 0 49 10t10 49t10.5 49t49.5 10h61v955h-61q-39 0 -49.5 10t-10.5 49t-10 49.5t-49 10.5h-60v239h60q39 0 49 -10t10 -51q0 -39 10.5 -49.5t49.5 -10.5q41 0 51 -10t10 -49t9 -49t50 -10t50.5 -10.5t9.5 -49.5t9 -49t50 -10h60v-955h-60q-41 0 -50 -10 t-9 -49t-9.5 -49t-50.5 -10q-39 0 -49 -10.5t-10 -51.5q0 -39 -10 -49t-51 -10q-39 0 -49.5 -9.5t-10.5 -50.5t-10 -50t-49 -9h-60v240z" />
<glyph unicode="*" horiz-adv-x="718" d="M61 684q0 41 10.5 50t49.5 9h59v240h-59q-39 0 -49.5 10.5t-10.5 48.5v60h240v237h119v-237h237v-60q0 -39 -9 -49t-50 -10h-59v-240h59q41 0 50 -9t9 -50t-9 -50t-50 -9t-50 9t-9 50t-9.5 50t-50.5 9t-50 9.5t-9 50.5t-9.5 50t-50.5 9t-50 -9t-9 -50q0 -39 -10 -49.5 t-51 -10.5q-39 0 -49.5 -9t-10.5 -50t-10 -50t-49 -9t-49.5 9t-10.5 50z" />
<glyph unicode="+" horiz-adv-x="1077" d="M61 -72v240h60q39 0 49 -10.5t10 -51t10.5 -50t49.5 -9.5h61v240h-61q-39 0 -49.5 10t-10.5 49t-10 49.5t-49 10.5h-60v954h60q39 0 49 10t10 49t10.5 49.5t49.5 10.5q41 0 51 10t10 49q0 41 10.5 51t49 10t49 -10t10.5 -51q0 -39 9 -49t50 -10t50.5 10t9.5 49 q0 41 10 51t49 10t49 -10t10 -51q0 -39 9.5 -49t50.5 -10t51 10t10 49q0 41 10.5 51t49.5 10t49 -10t10 -51q0 -39 10.5 -49t48.5 -10h60v-1073h-60q-39 0 -49 -10.5t-10 -49.5t-10 -49t-49 -10h-60v-240h60q39 0 49 9.5t10 50t10.5 51t48.5 10.5h60v-240h-119v-237h-59 q-39 0 -49.5 9t-10.5 50v60h-477v-60q0 -39 -10 -49t-51 -10h-60v237h-119zM180 406h60q41 0 51 -10.5t10 -49.5v-59h477v59q0 39 10.5 49.5t49.5 10.5h59v477h-240v59q0 41 -9 50t-50 9t-50 -9t-9 -50v-59h-238v239h596v357h-59q-39 0 -49.5 -10.5t-10.5 -49.5t-10 -49 t-51 -10t-50.5 10t-9.5 49t-9 49.5t-50 10.5t-50 -10.5t-9 -49.5t-9.5 -49t-50.5 -10t-50 10t-9 49t-9.5 49.5t-50.5 10.5t-50 -10.5t-9 -49.5t-10 -49t-51 -10h-60v-954zM301 584q0 41 10.5 51t49 10t49 -10t10.5 -51v-60h237v-118h-237v59q0 39 -9.5 49t-50.5 10t-50 10.5 t-9 49.5zM420 47h237v121h-237v-121zM657 704.5q0 40.5 9.5 50t50.5 9.5t51 -10.5t10 -49t-10 -49t-51 -10.5t-50.5 9.5t-9.5 50z" />
<glyph unicode="," horiz-adv-x="362" d="M61 -72q0 39 10.5 49.5t49.5 10.5t49 10t10 49t-10 49t-49 10h-60v240h240v-358h-61q-39 0 -49.5 -10.5t-10.5 -49.5t-10 -49t-49 -10t-49.5 10t-10.5 49z" />
<glyph unicode="-" horiz-adv-x="600" d="M61 485v119h478v-119h-478z" />
<glyph unicode="." horiz-adv-x="362" d="M61 88v238h240v-238h-240z" />
<glyph unicode="/" horiz-adv-x="718" d="M61 106v240h119v-240h-119zM180 346v238h121v239h119v238h119v-238h-119v-239h-119v-238h-121zM539 1061v239h118v-239h-118z" />
<glyph unicode="0" d="M61 326v716h60q39 0 49 9.5t10 50.5t10.5 50t49.5 9q41 0 51 10.5t10 49.5v59h356v-59q0 -41 9.5 -50.5t50.5 -9.5t51 -10t10 -49q0 -41 10.5 -50.5t49.5 -9.5h59v-716h-59q-39 0 -49.5 -9.5t-10.5 -50.5q0 -39 -10 -49t-51 -10t-50.5 -9.5t-9.5 -50.5v-59h-356v59 q0 39 -10 49.5t-51 10.5q-39 0 -49.5 9t-10.5 50t-10 50.5t-49 9.5h-60zM301 207h356v954h-356v-954z" />
<glyph unicode="1" horiz-adv-x="819" d="M61 47v121h240v833h-61q-39 0 -49.5 -9t-10.5 -50t-10 -50t-49 -9h-60v239h60q39 0 49 10.5t10 49.5v59h359v-1073h108q80 0 95.5 -8t15.5 -54v-59h-697z" />
<glyph unicode="2" horiz-adv-x="839" d="M61 47v359h60q39 0 49 10t10 49t10.5 49t49.5 10q41 0 51 10.5t10 49.5q0 41 10.5 51t48.5 10q41 0 50.5 9.5t9.5 50t9 50t50 9.5h60v237h-238v-59q0 -39 -10 -49t-51 -10h-60v239h60q41 0 51 10.5t10 49.5v59h356v-59q0 -39 9.5 -49.5t50.5 -10.5h61v-358h-61 q-41 0 -50.5 -9.5t-9.5 -50t-9 -50t-50 -9.5q-39 0 -49 -10t-10 -51q0 -39 -9.5 -49.5t-50.5 -10.5t-50 -10t-9 -49t-9.5 -49t-50.5 -10h-59v-238h356v59q0 39 9.5 49.5t50.5 10.5t51 -10.5t10 -49.5t-10 -49t-51 -10q-39 0 -49.5 -10.5t-10.5 -51.5v-59h-596z" />
<glyph unicode="3" horiz-adv-x="718" d="M61 186v240h240v-59q0 -39 9 -49.5t50 -10.5h60v357h-60q-41 0 -50 10t-9 49q0 41 10.5 51t48.5 10h60v238h-60q-41 0 -50 -9t-9 -50v-60h-240v238h60q39 0 49 9t10 50v62h359v-62q0 -41 9 -50t50 -9h59v-357h-59q-39 0 -49 -10t-10 -51q0 -39 9 -49t50 -10h59v-478h-59 q-41 0 -50 -9t-9 -50v-59h-359v59q0 41 -10 50t-49 9h-60z" />
<glyph unicode="4" horiz-adv-x="839" d="M61 426v836h240v-598h119v598h237v-598h121v-238h-121v-358h-237v358h-359z" />
<glyph unicode="5" horiz-adv-x="718" d="M61 207v237h60q39 0 49 -9t10 -50v-59h359v239h-359v60q0 39 -10 49t-49 10h-60v596h596v-238h-477v-239h359v-60q0 -39 9 -49t50 -10h59v-477h-59q-41 0 -50 -9.5t-9 -50.5v-59h-359v59q0 41 -10 50.5t-49 9.5h-60z" />
<glyph unicode="6" d="M61 326v716h60q39 0 49 9.5t10 50.5t10.5 50t49.5 9q41 0 51 10.5t10 49.5v59h356v-59q0 -41 9.5 -50.5t50.5 -9.5h61v-239h-61q-39 0 -49.5 10t-10.5 51v59h-356v-239h356v-60q0 -39 9.5 -49t50.5 -10t51 -10t10 -49t10.5 -49.5t49.5 -10.5h59v-239h-59 q-39 0 -49.5 -9.5t-10.5 -50.5q0 -39 -10 -49t-51 -10t-50.5 -9.5t-9.5 -50.5v-59h-356v59q0 39 -10 49.5t-51 10.5q-39 0 -49.5 9t-10.5 50t-10 50.5t-49 9.5h-60zM301 326h356v358h-356v-358z" />
<glyph unicode="7" horiz-adv-x="839" d="M61 1061v239h717v-358h-121v-237h-118v-240h-119v-359h-240v359h121v240h119v237h59q41 0 50.5 10.5t9.5 48.5v60h-478z" />
<glyph unicode="8" d="M61 168v356h60q39 0 49 10.5t10 49.5q0 41 10.5 51t49.5 10q41 0 51 10.5t10 49t-10 49t-51 10.5h-60v358h60q41 0 51 10.5t10 49.5v59h356v-59q0 -39 9.5 -49.5t50.5 -10.5h61v-358h-61q-41 0 -50.5 -9.5t-9.5 -50t9.5 -50t50.5 -9.5t51 -11t10 -50t10.5 -49.5 t49.5 -10.5h59v-356h-59q-39 0 -49.5 -10.5t-10.5 -51.5v-59h-598v59q0 41 -10 51.5t-49 10.5h-60zM420 168h119v356h-119v-356zM420 764h119v358h-119v-358z" />
<glyph unicode="9" horiz-adv-x="718" d="M61 168v238h60q39 0 49 -10.5t10 -49.5v-59h240v358h-240v60q0 41 -10 50t-49 9h-60v358h60q39 0 49 10.5t10 49.5v59h359v-59q0 -39 9 -49.5t50 -10.5h59v-954h-59q-39 0 -49 -10.5t-10 -51.5v-59h-359v59q0 41 -10 51.5t-49 10.5h-60zM301 764h119v358h-119v-358z" />
<glyph unicode=":" horiz-adv-x="362" d="M61 106v240h240v-240h-240zM61 705v237h240v-237h-240z" />
<glyph unicode=";" horiz-adv-x="362" d="M61 186v240h240v-358h-61q-39 0 -49.5 9t-10.5 50t-10 50t-49 9h-60zM61 664v239h240v-239h-240z" />
<glyph unicode="=" d="M61 106v359h119v240h-119v237h240v59q0 39 9 49.5t50 10.5q39 0 49.5 10t10.5 51t9 50.5t50 9.5t50.5 -9.5t9.5 -50.5t10 -51t49 -10q41 0 50 -10.5t9 -49.5v-59h240v-237h-119v118h-239v-118h239v-240h119v-359h-240v62q0 41 -9 50t-50 9t-50 9.5t-9 50.5t-9.5 50 t-50.5 9t-50 -9t-9 -50t-9.5 -50.5t-50.5 -9.5t-50 -9t-9 -50v-62h-240zM180 287q0 -41 10.5 -50.5t49.5 -9.5q41 0 51 10.5t10 49.5t-10 49t-51 10q-39 0 -49.5 -9t-10.5 -50zM180 705h240v118h-240v-118zM420 1001.5q0 -38.5 9 -49t50 -10.5t50.5 10.5t9.5 49t-9.5 49 t-50.5 10.5t-50 -10.5t-9 -49zM657 287q0 -41 9.5 -50.5t50.5 -9.5t51 10.5t10 49.5t-10 49t-51 10t-50.5 -9t-9.5 -50z" />
<glyph unicode="&#x3e;" d="M61 444v359h240v239h238v-59q0 -41 10 -51t49 -10q41 0 50 -10.5t9 -49.5t9.5 -49t50.5 -10t51 -10.5t10 -49t10.5 -49t49.5 -10.5t49 -10t10 -49t-10 -49.5t-49 -10.5t-49.5 -10t-10.5 -49t-10 -50.5t-51 -11.5t-50.5 -9t-9.5 -50t-9 -50t-50 -9t-50 -9.5t-9 -50.5v-59 h-238v237h-240zM420 862q0 -39 9 -49t50 -10t50.5 -10.5t9.5 -49t9 -49t50 -10.5t50 -10t9 -49t9.5 -49.5t50.5 -10.5t51 10.5t10 49.5t-10 49t-51 10t-50.5 10.5t-9.5 49t-9 49t-50 10.5t-50 10t-9 49t-9.5 49.5t-50.5 10.5t-50 -10.5t-9 -49.5z" />
<glyph unicode="?" horiz-adv-x="718" d="M61 29v237h240v-59q0 -39 -10 -49.5t-51 -10.5q-39 0 -49.5 -10t-10.5 -49t-10 -49t-49 -10h-60zM61 862v240h60q39 0 49 10t10 49v60h359v-60q0 -39 9 -49t50 -10h59v-359h-118v-237h-238v-62q0 -39 -10 -49t-51 -10h-60v240h60q41 0 51 10t10 49q0 41 9 50t50 9h60v240 h-240v-61q0 -41 -10 -50.5t-49 -9.5h-60z" />
<glyph unicode="@" d="M61 385v477h60q39 0 49 9.5t10 50.5v61h240v-61q0 -41 9 -50.5t50 -9.5t50.5 9.5t9.5 50.5v61h239v-61q0 -41 10.5 -50.5t49.5 -9.5h59v-477h-59q-39 0 -49.5 -10t-10.5 -49t-10 -49.5t-51 -10.5t-50.5 -10t-9.5 -49t-9 -49.5t-50 -10.5t-50 -10t-9 -49t-9.5 -49 t-50.5 -10t-50 10t-9 49t-9.5 49t-50.5 10t-50 10.5t-9 49.5t-10 49t-51 10q-39 0 -49.5 10.5t-10.5 49.5t-10 49t-49 10h-60zM180 385h60q41 0 51 -10t10 -49t9 -49.5t50 -10.5t50.5 -10t9.5 -49t9 -49.5t50 -10.5t50.5 10.5t9.5 49.5t9 49t50 10t50 10.5t9 49.5t9.5 49 t50.5 10h61v477h-239v-59q0 -41 -9.5 -50.5t-50.5 -9.5t-50 9.5t-9 50.5v59h-240v-477z" />
<glyph unicode="A" d="M61 29v477h119v356h121v359h59q41 0 50.5 10t9.5 49t9 49t50 10t50.5 -10t9.5 -49t9 -49t50 -10h59v-359h121v-356h119v-477h-240v477h-59q-41 0 -50 9t-9 50t-9.5 50.5t-50.5 9.5t-50 -9.5t-9 -50.5t-9.5 -50t-50.5 -9h-59v-477h-240zM420 862h119v240h-119v-240z" />
<glyph unicode="B" d="M61 8v60q0 39 10.5 49t49.5 10h59v1073h-59q-39 0 -49.5 10.5t-10.5 51.5v59h596v-59q0 -41 10.5 -51.5t49.5 -10.5q41 0 51 -10t10 -49t10.5 -49.5t49.5 -10.5h59v-358h-59q-39 0 -49.5 -9t-10.5 -50t10.5 -50.5t49.5 -9.5h59v-358h-59q-39 0 -49.5 -10.5t-10.5 -49.5 t-10 -49t-51 -10t-50.5 -10.5t-9.5 -48.5v-60h-596zM420 246h237v358h-237v-358zM420 723h237v358h-237v-358z" />
<glyph unicode="C" horiz-adv-x="937" d="M61 367v596h119v237h60q39 0 50 10.5t11 51.5v59h477v-59q0 -37 9.5 -49.5t39.5 -12.5q35 0 42.5 -17.5t7.5 -101.5t-7.5 -101t-42.5 -17q-31 0 -40 11t-9 48v59h-358v-59q0 -39 -9.5 -49t-50.5 -10h-59v-596h59q41 0 50.5 -9.5t9.5 -50.5v-61h358v61q0 37 9.5 48.5 t39.5 11.5q35 0 42.5 -17.5t7.5 -103.5q0 -84 -7.5 -101.5t-42.5 -17.5q-31 0 -40 -11.5t-9 -47.5v-60h-477v60q0 39 -10 49t-51 10h-60v240h-119z" />
<glyph unicode="D" d="M61 8v60q0 39 10.5 49t49.5 10h59v1073h-59q-39 0 -49.5 10.5t-10.5 51.5v59h478v-121h239v-237h119v-596h-119v-240h-239v-119h-478zM420 246h59q39 0 49.5 10t10.5 51t9 50.5t50 9.5h59v596h-59q-41 0 -50 10t-9 49t-9.5 49t-50.5 10h-59v-835z" />
<glyph unicode="E" d="M61 -12v59q0 39 10.5 49t49.5 10h59v599h-59q-39 0 -49.5 10t-10.5 49t10.5 49t49.5 10h59v359h-59q-39 0 -49.5 9t-10.5 50v59h717v-59q0 -41 10.5 -50t49.5 -9t49 -9.5t10 -50.5t-10 -51t-49 -10t-49.5 10t-10.5 51v60h-358v-359h237v-118h-237v-478h358v60 q0 41 10.5 50t49.5 9h59v-240h-59q-39 0 -49.5 -10t-10.5 -49v-59h-717z" />
<glyph unicode="F" d="M61 784q0 39 10.5 49.5t49.5 10.5h59v356h-59q-39 0 -49.5 10.5t-10.5 51.5v59h717v-59q0 -41 10.5 -51.5t49.5 -10.5t49 -10t10 -49t-10 -49.5t-49 -10.5t-49.5 10.5t-10.5 49.5v59h-358v-356h237v-121h-237v-715h-240v715h-59q-39 0 -49.5 10t-10.5 51z" />
<glyph unicode="G" d="M61 346v596h119v240h60q41 0 51 10t10 49v59h477v-59q0 -41 10.5 -50t49.5 -9h59v-240h-59q-39 0 -49.5 10.5t-10.5 48.5v60h-358v-60q0 -39 -9.5 -49t-50.5 -10h-59v-596h59q41 0 50.5 -9t9.5 -50v-60h237v357h-59q-39 0 -49 10t-10 51v60h358v-599h-59q-39 0 -49.5 -10 t-10.5 -49v-59h-477v59q0 39 -10 49t-51 10h-60v240h-119z" />
<glyph unicode="H" d="M61 1262v59h240v-59q0 -41 10.5 -51.5t48.5 -10.5h60v-356h237v477h60q41 0 51 -10.5t10 -48.5q0 -41 10.5 -51.5t49.5 -10.5h59v-1073h-59q-39 0 -49.5 -10.5t-10.5 -49t-10 -49t-51 -10.5h-60v596h-237v-477h-60q-41 0 -50 -10.5t-9 -49t-10 -49t-51 -10.5h-60v1192 h-59q-39 0 -49.5 10.5t-10.5 51.5z" />
<glyph unicode="I" d="M61 -12v59q0 39 10.5 49t49.5 10t49 10.5t10 51.5v59h240v834h-359v61q0 41 10.5 50.5t49.5 9.5t49 9t10 50v59h717v-59q0 -41 -10 -50t-49 -9t-49.5 -9.5t-10.5 -50.5v-61h-239v-834h358v-59q0 -41 -10 -51.5t-49 -10.5t-49.5 -10t-10.5 -49v-59h-717z" />
<glyph unicode="J" horiz-adv-x="839" d="M61 106v240h60q39 0 49 -9t10 -50v-60h240v955h-240v-60q0 -41 -10 -51t-49 -10t-49.5 10t-10.5 51t10.5 50.5t49.5 9.5t49 9t10 50v59h598v-59q0 -39 -10 -49t-51 -10h-60v-1076h-59q-41 0 -50 -10t-9 -49v-59h-238v118h-240z" />
<glyph unicode="K" d="M61 1200v62h359v-478h59q41 0 50.5 9.5t9.5 50.5t9 50t50 9t50 9.5t9 50.5t9.5 50t50.5 9h61v240h119v-359h-59q-39 0 -49.5 -9t-10.5 -50q0 -39 -10 -49.5t-51 -10.5h-60v-239h121v-238h119v-358h-240v477h-59q-41 0 -50 10t-9 49t-9.5 49.5t-50.5 10.5h-59v-596h-240 v1192h-59q-39 0 -49.5 9t-10.5 50z" />
<glyph unicode="L" d="M61 -12v1312h240v-1073h477v60q0 41 10.5 50t49.5 9h59v-240h-59q-39 0 -49.5 -10t-10.5 -49v-59h-717z" />
<glyph unicode="M" d="M61 -12v1312h240v-59q0 -41 9 -50t50 -9t50.5 -9.5t9.5 -50.5v-61h237v61q0 41 9.5 50.5t50.5 9.5t51 10t10 49q0 41 10.5 50t49.5 9h59v-1312h-119v835h-61q-41 0 -50.5 -10t-9.5 -49v-59h-237v59q0 39 -9.5 49t-50.5 10h-59v-835h-240z" />
<glyph unicode="N" d="M61 -12v1312h240v-239h119v-238h119v-239h118v716h60q41 0 51 -10t10 -49q0 -41 10.5 -50t49.5 -9h59v-1194h-240v59q0 39 -9 49t-50 10h-59v240h-119v238h-119v-596h-240z" />
<glyph unicode="O" horiz-adv-x="976" d="M61 346v596h119v240h60q41 0 51 10t10 49v59h356v-59q0 -41 9.5 -50t50.5 -9t51 -10.5t10 -49.5t10.5 -50t47.5 -11q41 0 49 -17.5t18 -115.5q16 -142 15.5 -284t-15.5 -282q-10 -100 -18 -117.5t-49 -17.5q-39 0 -48.5 -10t-9.5 -49q0 -41 -10 -51.5t-51 -10.5 t-50.5 -10t-9.5 -49v-59h-356v59q0 39 -10 49t-51 10h-60v240h-119zM301 346h59q41 0 50.5 -9t9.5 -50v-60h237v60q0 41 9.5 50t50.5 9h61v596h-61q-41 0 -50.5 10t-9.5 49v60h-237v-60q0 -39 -9.5 -49t-50.5 -10h-59v-596z" />
<glyph unicode="P" d="M61 1262v59h596v-59q0 -41 10.5 -51.5t49.5 -10.5q41 0 51 -10t10 -49t10.5 -49.5t49.5 -10.5h59v-358h-59q-39 0 -49.5 -9t-10.5 -50v-60h-239v-59q0 -41 -9.5 -50.5t-50.5 -9.5h-59v-477h-240v1192h-59q-39 0 -49.5 10.5t-10.5 51.5zM420 723h237v358h-237v-358z" />
<glyph unicode="Q" d="M61 346v596h119v240h60q41 0 51 10t10 49v59h356v-59q0 -41 9.5 -50t50.5 -9t51 -10.5t10 -49.5q0 -41 10.5 -51t49.5 -10h59v-834h-59q-39 0 -49.5 -9t-10.5 -50t10.5 -51.5t49.5 -10.5t49 -10t10 -49t-10 -49t-49 -10t-49.5 10t-10.5 49t-10 49t-51 10t-50.5 -10 t-9.5 -49v-59h-356v59q0 39 -10 49t-51 10h-60v240h-119zM301 227h59q41 0 50.5 -9t9.5 -50v-62h237v62q0 41 9.5 50t50.5 9h61v834h-358v-60q0 -39 -9.5 -49t-50.5 -10h-59v-715zM539 287q0 41 9 50t50 9t50 -9t9 -50t-9 -50.5t-50 -9.5t-50 9.5t-9 50.5z" />
<glyph unicode="R" d="M61 1262v59h717v-59q0 -41 10.5 -51.5t49.5 -10.5h59v-477h-119v-356h119v-359h-240v359h-59q-41 0 -50 9t-9 50t-9.5 50t-50.5 9h-59v-477h-240v1192h-59q-39 0 -49.5 10.5t-10.5 51.5zM420 723h59q39 0 49.5 10t10.5 51q0 39 9 49.5t50 10.5h59v237h-237v-358z" />
<glyph unicode="S" d="M61 106v240h60q39 0 49 -9t10 -50v-60h359v238h-60q-41 0 -50 9t-9 50t-9.5 50.5t-50.5 9.5q-39 0 -49 10t-10 51q0 39 -10 49.5t-51 10.5q-39 0 -49.5 10t-10.5 49t-10 49t-49 10h-60v238h60q39 0 49 10t10 51t10.5 50.5t49.5 9.5q41 0 51 10t10 49v59h477v-59 q0 -41 10.5 -50t49.5 -9h59v-240h-59q-39 0 -49.5 10.5t-10.5 48.5v60h-358v-238h59q41 0 50.5 -10t9.5 -49v-59h239v-60q0 -41 10.5 -51t49.5 -10h59v-357h-59q-39 0 -49.5 -9t-10.5 -50t-10 -51.5t-51 -10.5t-50.5 -10t-9.5 -49v-59h-477v59q0 39 -10 49t-49 10h-60z" />
<glyph unicode="T" d="M61 922v358h836v-358h-59q-39 0 -49.5 10t-10.5 51v59h-239v-1075h-119v1075h-240v-59q0 -41 -10 -51t-49 -10h-60z" />
<glyph unicode="U" d="M61 326v954h240v-954h59q41 0 50.5 -9.5t9.5 -50.5t9 -50t50 -9t50.5 9t9.5 50t9 50.5t50 9.5h59v954h240v-954h-119v-238h-61q-41 0 -50.5 -9t-9.5 -50v-62h-356v62q0 39 -10 49t-51 10h-60v238h-119z" />
<glyph unicode="V" d="M61 803v477h240v-477h119v-359h119v359h118v477h240v-477h-119v-477h-121v-238h-59q-41 0 -50 -9t-9 -50t-10.5 -51.5t-49.5 -10.5t-49 10.5t-10 51.5t-9.5 50t-50.5 9h-59v238h-121v477h-119z" />
<glyph unicode="W" d="M61 307v955h240v-1076h119v359h119v-359h118v1076h240v-955h-119v-239h-61q-41 0 -50.5 -9.5t-9.5 -50.5t-9 -50t-50 -9t-50 9t-9 50t-9.5 50.5t-50.5 9.5t-50 -9.5t-9 -50.5t-9.5 -50t-50.5 -9t-50 9t-9 50q0 39 -10 49.5t-51 10.5h-60v239h-119z" />
<glyph unicode="X" d="M61 -12v239h119v238h121v358h-121v238h-119v239h240v-239h119v-238h119v238h118v239h240v-239h-119v-238h-121v-358h121v-238h119v-239h-240v239h-118v238h-119v-238h-119v-239h-240z" />
<glyph unicode="Y" d="M61 942v358h240v-358h119v-237h119v237h118v358h240v-358h-119v-237h-121v-240h-118v-477h-119v477h-119v240h-121v237h-119z" />
<glyph unicode="Z" d="M61 47v359h60q39 0 49 10t10 49t10.5 49t49.5 10h61v240h59q41 0 50.5 9t9.5 50t9 50.5t50 9.5t50.5 9t9.5 50t9 50t50 9t50 9.5t9 50.5v61h-477v-61q0 -41 -10 -50.5t-49 -9.5h-60v240h60q39 0 49 10t10 49v60h717v-359h-59q-39 0 -49.5 -9t-10.5 -50q0 -39 -10 -49 t-51 -10h-60v-238h-59q-39 0 -49 -10t-10 -51q0 -39 -9.5 -49.5t-50.5 -10.5t-50 -10t-9 -49t-9.5 -49t-50.5 -10t-50 -10.5t-9 -49.5v-59h477v59q0 39 10.5 49.5t49.5 10.5h59v-238h-59q-39 0 -49.5 -10.5t-10.5 -51.5v-59h-717z" />
<glyph unicode="_" horiz-adv-x="718" d="M61 29h596v-121h-596v121z" />
<glyph unicode="a" d="M61 227v478h60q39 0 49 10t10 49v59h477v-239h121v-357h60q39 0 49 -9t10 -50v-62h-240v62q0 41 -9 50t-50 9t-50 -9t-9 -50v-62h-359v62q0 41 -10 50t-49 9h-60zM301 227h119v478h-119v-478z" />
<glyph unicode="b" d="M61 1280v59h240v-59q0 -39 9 -49t50 -10h60v-359h358v-59q0 -41 10.5 -50.5t49.5 -9.5h59v-477h-59q-39 0 -49.5 -10t-10.5 -49v-60h-477v60q0 39 -10 49t-51 10h-60v955h-59q-39 0 -49.5 10t-10.5 49zM420 266h119v477h-119v-477z" />
<glyph unicode="c" horiz-adv-x="600" d="M61 287v477h60q39 0 49 9t10 50v60h359v-119h-238v-477h238v-119h-359v59q0 39 -10 49.5t-49 10.5h-60z" />
<glyph unicode="d" d="M61 287v477h60q39 0 49 9t10 50v60h359v358h59q41 0 50 10t9 49v60h240v-60q0 -39 -10 -49t-49 -10h-60v-954h60q39 0 49 -10.5t10 -49.5t-10 -49t-49 -10t-49.5 10t-10.5 49t-10 49.5t-51 10.5t-50.5 -10.5t-9.5 -49.5v-59h-477v59q0 39 -10 49.5t-49 10.5h-60zM301 287 h119v477h-119v-477z" />
<glyph unicode="e" horiz-adv-x="839" d="M61 287v477h60q39 0 49 9t10 50v60h477v-60q0 -41 9.5 -50t50.5 -9h61v-358h-477v-119h356v-119h-477v59q0 39 -10 49.5t-49 10.5h-60zM301 524h238v240h-238v-240z" />
<glyph unicode="f" horiz-adv-x="839" d="M61 684q0 41 10.5 50t49.5 9h59v478h60q41 0 51 10t10 49v59h356v-59q0 -39 9.5 -49t50.5 -10t51 -10.5t10 -49.5t-10 -49t-51 -10t-50.5 10t-9.5 49v60h-237v-478h237v-118h-237v-478h-240v478h-59q-39 0 -49.5 9t-10.5 50z" />
<glyph unicode="g" horiz-adv-x="839" d="M61 106h60q39 0 49 -10t10 -49v-59h359v239h-359v60q0 41 -10 50t-49 9h-60v359h60q39 0 49 10t10 49v59h477v-59q0 -39 9.5 -49t50.5 -10h61v-836h-61q-41 0 -50.5 -10.5t-9.5 -48.5v-60h-477v60q0 39 -10 49t-49 10h-60v237zM301 346h119v359h-119v-359z" />
<glyph unicode="h" d="M61 1241v59h240v-59q0 -41 9 -50t50 -9h60v-359h358v-59q0 -39 10.5 -49t49.5 -10h59v-599h-240v478h-237v-478h-240v1076h-59q-39 0 -49.5 9t-10.5 50z" />
<glyph unicode="i" horiz-adv-x="362" d="M61 127v477h60q39 0 49 9.5t10 50.5t10.5 50t49.5 9h61v-477h-61q-39 0 -49.5 -10.5t-10.5 -49.5t-10 -49t-49 -10h-60zM61 1022v59h240v-237h-61q-39 0 -49.5 10t-10.5 49t-10 49.5t-49 10.5t-49.5 10t-10.5 49z" />
<glyph unicode="j" horiz-adv-x="839" d="M61 68h60q39 0 49 -9.5t10 -50.5v-59h359v596h59q41 0 50 10t9 49t9.5 49.5t50.5 10.5h61v-834h-61q-39 0 -49.5 -10t-10.5 -51v-60h-477v60q0 41 -10 51t-49 10h-60v238zM539 963v59h239v-238h-61q-41 0 -50.5 9.5t-9.5 50.5t-9 50t-50 9t-50 9.5t-9 50.5z" />
<glyph unicode="k" horiz-adv-x="718" d="M61 106v955h240v-356h59q41 0 50.5 10t9.5 49t9 49t50 10h60v238h118v-356h-59q-41 0 -50 -10.5t-9 -49.5q0 -41 -10.5 -51t-49.5 -10q-41 0 -50 -9.5t-9 -50.5t9 -50t50 -9t50.5 -9.5t9.5 -50t9 -50t50 -9.5h59v-240h-59q-39 0 -49 10.5t-10 51.5t-9.5 50t-50.5 9 t-50 9.5t-9 50.5t-9.5 50t-50.5 9h-59v-240h-240z" />
<glyph unicode="l" horiz-adv-x="600" d="M61 1241v59h240v-59q0 -41 9 -50t50 -9h60v-955h59q41 0 50.5 -9t9.5 -50v-62h-238v62q0 39 -10 49t-51 10h-60v955h-59q-39 0 -49.5 9t-10.5 50z" />
<glyph unicode="m" horiz-adv-x="1077" d="M61 764v59h240v-59q0 -39 9 -49t50 -10t50.5 10t9.5 49t9 49t50 10t50.5 -10t9.5 -49t9 -49t50 -10t50 10t9 49v59h240v-59q0 -39 10.5 -49t48.5 -10h60v-599h-238v478h-61q-41 0 -50.5 -9.5t-9.5 -50.5t-9 -50t-50 -9t-50 9t-9 50t-9.5 50.5t-50.5 9.5h-59v-478h-240 v599h-59q-39 0 -49.5 10t-10.5 49z" />
<glyph unicode="n" horiz-adv-x="839" d="M61 743v60h240v-60q0 -39 9 -49t50 -10t50.5 10.5t9.5 48.5v60h237v-60q0 -39 9.5 -49t50.5 -10h61v-596h-239v477h-119v-477h-240v596h-59q-39 0 -49.5 10t-10.5 49z" />
<glyph unicode="o" horiz-adv-x="718" d="M61 246v477h60q39 0 49 10t10 51v60h359v-60q0 -41 10 -51t49 -10h59v-477h-59q-41 0 -50 -10.5t-9 -49.5v-59h-359v59q0 39 -10 49.5t-49 10.5h-60zM301 246h119v477h-119v-477z" />
<glyph unicode="p" horiz-adv-x="839" d="M61 -152q0 41 10.5 50.5t49.5 9.5h59v835h60q41 0 51 10.5t10 49.5v59h356v-59q0 -41 9.5 -50.5t50.5 -9.5h61v-477h-61q-41 0 -50.5 -10t-9.5 -49v-60h-237v-239h-60q-41 0 -50 -9.5t-9 -50.5v-59h-240v59zM420 266h119v477h-119v-477z" />
<glyph unicode="q" horiz-adv-x="937" d="M61 227v478h60q39 0 49 10t10 49v59h477v-59q0 -39 9.5 -49t50.5 -10h61v-836h32.5t30 -2t22.5 -6t12.5 -17.5t1.5 -33.5q0 -45 -14.5 -52.5t-94.5 -7.5t-95.5 8.5t-15.5 51.5q0 39 -9 49t-50 10h-59v237h-359v62q0 41 -10 50t-49 9h-60zM301 227h119v478h-119v-478z" />
<glyph unicode="r" horiz-adv-x="839" d="M61 764v59h240v-59q0 -39 9 -49t50 -10t50.5 10t9.5 49v59h237v-59q0 -39 9.5 -49t50.5 -10h61v-240h-61q-41 0 -50.5 9t-9.5 50v60h-237v-478h-240v599h-59q-39 0 -49.5 10t-10.5 49z" />
<glyph unicode="s" horiz-adv-x="718" d="M61 88v119h359v119h-240v59q0 41 -10 50t-49 9h-60v240h60q39 0 49 10t10 49v60h477v-119h-356v-119h238v-59q0 -41 10 -51.5t49 -10.5h59v-237h-59q-41 0 -50 -9.5t-9 -50.5v-59h-478z" />
<glyph unicode="t" horiz-adv-x="600" d="M61 625q0 39 10.5 49t49.5 10h59v358h240v-358h59q41 0 50.5 -10t9.5 -49t-9.5 -49.5t-50.5 -10.5h-59v-358h59q41 0 50.5 -9.5t9.5 -50.5v-59h-238v59q0 39 -10 49.5t-51 10.5h-60v358h-59q-39 0 -49.5 10.5t-10.5 49.5z" />
<glyph unicode="u" horiz-adv-x="839" d="M61 207v596h240v-596h119v596h237v-596h60q41 0 51 -10.5t10 -49t-10 -49t-51 -10.5t-50.5 9t-9.5 50t-9 50.5t-50 9.5t-50 -9.5t-9 -50.5v-59h-359v59q0 41 -10 50.5t-49 9.5h-60z" />
<glyph unicode="v" horiz-adv-x="718" d="M61 346v477h60q39 0 49 -10t10 -49t10.5 -49t49.5 -10h61v-240h119v240h59q41 0 50.5 10t9.5 49t9 49t50 10h59v-477h-59q-41 0 -50 -9t-9 -50t-9.5 -50.5t-50.5 -9.5t-50 -9t-9 -50t-10.5 -51.5t-49 -10.5t-49 10.5t-10.5 51.5q0 39 -10 49t-51 10q-39 0 -49.5 9.5 t-10.5 50.5t-10 50t-49 9h-60z" />
<glyph unicode="w" d="M61 346v477h240v-358h59q41 0 50.5 9t9.5 50t9 50.5t50 9.5t50.5 -9.5t9.5 -50.5t9 -50t50 -9h59v358h240v-477h-119v-240h-239v62q0 41 -9.5 50t-50.5 9t-50 -9t-9 -50v-62h-240v240h-119z" />
<glyph unicode="x" d="M61 88v59q0 41 10.5 50.5t49.5 9.5t49 9t10 50t10.5 50.5t49.5 9.5h61v239h-61q-39 0 -49.5 10.5t-10.5 49.5t-10 49t-49 10t-49.5 10t-10.5 49v60h240v-60q0 -39 9 -49t50 -10t50.5 -10t9.5 -49t9 -49.5t50 -10.5t50.5 10.5t9.5 49.5t9 49t50 10t50 10.5t9 48.5v60h240 v-60q0 -39 -10 -49t-49 -10t-49.5 -10t-10.5 -49t-10 -49.5t-51 -10.5h-60v-239h60q41 0 51 -10.5t10 -49.5q0 -41 10.5 -50t49.5 -9t49 -9.5t10 -50.5v-59h-240v59q0 41 -9 50.5t-50 9.5t-50 9t-9 50t-9.5 50.5t-50.5 9.5t-50 -9.5t-9 -50.5t-9.5 -50t-50.5 -9t-50 -9.5 t-9 -50.5v-59h-240z" />
<glyph unicode="y" horiz-adv-x="718" d="M61 -72h359v119h-240v59q0 41 -10 51.5t-49 10.5h-60v596h240v-596h119v596h237v-954h-59q-41 0 -50 -9.5t-9 -50.5v-59h-359v59q0 41 -10 50.5t-49 9.5t-49.5 9t-10.5 50v59z" />
<glyph unicode="z" horiz-adv-x="839" d="M61 68v59q0 41 10.5 50t49.5 9h59v240h60q41 0 51 10t10 49t9 49.5t50 10.5t50.5 10t9.5 49v60h-359v120h717v-61q0 -39 -10 -49t-51 -10h-60v-238h-59q-41 0 -50 -10t-9 -49t-9.5 -49.5t-50.5 -10.5q-39 0 -49 -10t-10 -51v-60h358v-118h-717z" />
<glyph unicode="{" horiz-adv-x="600" d="M61 584q0 41 10.5 51t49.5 10h59v477h60q41 0 51 10.5t10 49.5v59h238v-59q0 -39 -9.5 -49.5t-50.5 -10.5h-59v-477h-60q-39 0 -49 -10t-10 -51q0 -39 9 -49.5t50 -10.5h60v-477h59q41 0 50.5 -9t9.5 -50v-60h-238v60q0 39 -10 49t-51 10h-60v477h-59q-39 0 -49.5 10.5 t-10.5 49.5z" />
<glyph unicode="}" horiz-adv-x="600" d="M61 -12q0 41 10.5 50t49.5 9h59v477h60q41 0 51 10.5t10 49.5t-11 50t-50 11h-60v477h-59q-39 0 -49.5 10.5t-10.5 49.5v59h240v-59q0 -39 9 -49.5t50 -10.5h60v-477h59q39 0 49.5 -10t10.5 -51q0 -39 -9.5 -49.5t-50.5 -10.5h-59v-477h-60q-41 0 -50 -9t-9 -50v-60h-240 v60z" />
<glyph unicode="~" d="M61 444v240h60q39 0 49 10t10 49v60h240v-119h358v59q0 39 10.5 49.5t49.5 10.5h59v-238h-59q-39 0 -49.5 -10t-10.5 -49v-62h-239v121h-359v-59q0 -41 -10 -51.5t-49 -10.5h-60z" />
<glyph unicode="&#xad;" horiz-adv-x="600" d="M61 485v119h478v-119h-478z" />
<glyph unicode="&#x2000;" horiz-adv-x="799" />
<glyph unicode="&#x2001;" horiz-adv-x="1599" />
<glyph unicode="&#x2002;" horiz-adv-x="799" />
<glyph unicode="&#x2003;" horiz-adv-x="1599" />
<glyph unicode="&#x2004;" horiz-adv-x="533" />
<glyph unicode="&#x2005;" horiz-adv-x="399" />
<glyph unicode="&#x2006;" horiz-adv-x="266" />
<glyph unicode="&#x2007;" horiz-adv-x="266" />
<glyph unicode="&#x2008;" horiz-adv-x="199" />
<glyph unicode="&#x2009;" horiz-adv-x="319" />
<glyph unicode="&#x200a;" horiz-adv-x="88" />
<glyph unicode="&#x2010;" horiz-adv-x="600" d="M61 485v119h478v-119h-478z" />
<glyph unicode="&#x2011;" horiz-adv-x="600" d="M61 485v119h478v-119h-478z" />
<glyph unicode="&#x2012;" horiz-adv-x="600" d="M61 485v119h478v-119h-478z" />
<glyph unicode="&#x2013;" horiz-adv-x="1146" d="M61 485v119h1024v-119h-1024z" />
<glyph unicode="&#x2014;" horiz-adv-x="2170" d="M61 485v119h2048v-119h-2048z" />
<glyph unicode="&#x202f;" horiz-adv-x="319" />
<glyph unicode="&#x205f;" horiz-adv-x="399" />
<glyph unicode="&#x25fc;" horiz-adv-x="798" d="M0 0v799h799v-799h-799z" />
</font>
</defs>
</svg>
